<?xml version="1.0"?>
<svg xmlns="http://www.w3.org/2000/svg" width="76" height="86" viewBox="1.2 1.85 77 87">
	<polygon points="6.5,26.2 39.7,7.1 47.9,30.8" fill="#40b2fc" />
	<polygon points="47.9,30.8 39.7,7.1 72.8,26.2" fill="#40b2fc" />
	<polygon points="6.5,26.2 6.5,64.5 35.8,57.7" fill="#9119f6" />
	<polygon points="35.8,57.7 6.5,26.2 47.9,30.8" fill="#e16bfc" />
	<polygon points="47.9,30.8 35.8,57.7 59.2,51.3" fill="#e16bfc" />
	<polygon points="72.8,26.2 47.9,30.8 59.2,51.3" fill="#40b2fc" />
	<polygon points="72.8,26.2 72.8,64.5 59.2,51.3" fill="#40b2fc" />
	<polygon points="6.5,64.5 35.8,57.7 39.7,83.6" fill="#9119f6" />
	<polygon points="59.2,51.3 39.7,83.6 35.8,57.7" fill="#e16bfc" />
	<polygon points="39.7,83.6 72.8,64.5 59.2,51.3" fill="#e16bfc" />
	<path stroke-width="1" stroke="#000000" fill="#aaaaaa" d="M74.3,60V30.8c1.9-0.6,3.3-2.4,3.3-4.5c0-2.7-2.1-4.8-4.8-4.8c-1.2,0-2.3,0.5-3.2,1.2L44.4,8.1 c0.1-0.3,0.1-0.6,0.1-1c0-2.7-2.1-4.8-4.8-4.8c-2.7,0-4.8,2.1-4.8,4.8c0,0.3,0,0.7,0.1,1L9.7,22.7c-0.8-0.8-2-1.2-3.2-1.2 c-2.7,0-4.8,2.1-4.8,4.8c0,2.1,1.4,3.9,3.3,4.5V60c-1.9,0.6-3.3,2.4-3.3,4.5c0,2.7,2.1,4.8,4.8,4.8c1.2,0,2.3-0.5,3.2-1.2L35,82.6 c-0.1,0.3-0.1,0.6-0.1,1c0,2.7,2.1,4.8,4.8,4.8c2.7,0,4.8-2.1,4.8-4.8c0-0.3,0-0.7-0.1-1l25.3-14.6c0.8,0.8,2,1.2,3.2,1.2 c2.7,0,4.8-2.1,4.8-4.8C77.6,62.4,76.2,60.6,74.3,60z M70.6,60.3l-7.2-6.9c0.3-0.6,0.5-1.3,0.5-2c0-1.3-0.5-2.4-1.3-3.2l8.7-16V60 C71.1,60,70.8,60.1,70.6,60.3z M40.5,78.9L38,62c1.5-0.8,2.5-2.3,2.6-4l14.5-4c0.1,0.2,0.3,0.3,0.4,0.5L40.8,78.9 C40.7,78.9,40.6,78.9,40.5,78.9z M10.9,28.2l32.3,3.6c0.2,1,0.7,1.9,1.5,2.5L36.3,53c-0.2,0-0.3,0-0.5,0c-0.7,0-1.4,0.2-2,0.4 L10.7,28.5C10.8,28.4,10.9,28.3,10.9,28.2z M68.6,28.5c0.2,0.4,0.4,0.7,0.7,1L60,46.6c-0.3-0.1-0.6-0.1-0.9-0.1 c-0.3,0-0.6,0-0.8,0.1L51.4,34c0.7-0.7,1.1-1.6,1.2-2.6L68.6,28.5z M39.8,55.1c-0.2-0.3-0.5-0.6-0.8-0.9l8.4-18.7 c0.2,0,0.3,0,0.5,0c0.3,0,0.6,0,0.9-0.1L55.6,48c-0.8,0.8-1.3,1.9-1.3,3.1L39.8,55.1z M68.1,25.6l-16,2.9C51.3,27,49.7,26,47.9,26 c0,0-0.1,0-0.1,0l-5.3-15.1c0.1-0.1,0.2-0.1,0.3-0.2l25.3,14.6C68.1,25.3,68.1,25.5,68.1,25.6z M39.7,11.9 C39.7,11.9,39.7,11.9,39.7,11.9L45,27c-0.6,0.5-1.1,1.1-1.5,1.8l-32.3-3.6l25.2-14.6C37.4,11.4,38.5,11.9,39.7,11.9z M8.5,30.6 l23.1,24.8c-0.3,0.6-0.5,1.2-0.6,1.9L10.6,62C10,61,9.1,60.3,8,60V30.8C8.2,30.7,8.4,30.6,8.5,30.6z M11.3,64.9l20.4-4.7 c0.7,1.2,1.9,2,3.3,2.2l2.5,16.9c-0.4,0.2-0.7,0.4-1,0.7L11.2,65.5C11.3,65.3,11.3,65.1,11.3,64.9z M58.1,56 c0.3,0.1,0.7,0.1,1,0.1c0.8,0,1.6-0.2,2.3-0.6l7.1,6.9C68.2,63,68,63.7,68,64.5c0,0.3,0,0.7,0.1,1L44,79.4L58.1,56z"/>
</svg>
